<svg height="574" width="720" xmlns="http://www.w3.org/2000/svg">
<rect height="574" fill="#555" width="720"></rect>
<text fill="#7f7" font-family="Courier New" font-size="12" xml:space="preserve">
<tspan x="10" y="26">└─┬ mocha@3.2.0 </tspan>
<tspan x="10" y="42">  ├── browser-stdout@1.3.0 </tspan>
<tspan x="10" y="58">  ├─┬ commander@2.9.0 </tspan>
<tspan x="10" y="74">  │ └── graceful-readlink@1.0.1 </tspan>
<tspan x="10" y="90">  ├─┬ debug@2.2.0 </tspan>
<tspan x="10" y="106">  │ └── ms@0.7.1 </tspan>
<tspan x="10" y="122">  ├── diff@1.4.0 </tspan>
<tspan x="10" y="138">  ├── escape-string-regexp@1.0.5 </tspan>
<tspan x="10" y="154">  ├─┬ glob@7.0.5 </tspan>
<tspan x="10" y="170">  │ ├── fs.realpath@1.0.0 </tspan>
<tspan x="10" y="186">  │ ├─┬ inflight@1.0.6 </tspan>
<tspan x="10" y="202">  │ │ └── wrappy@1.0.2 </tspan>
<tspan x="10" y="218">  │ ├── inherits@2.0.3 </tspan>
<tspan x="10" y="234">  │ ├─┬ minimatch@3.0.3 </tspan>
<tspan x="10" y="250">  │ │ └─┬ brace-expansion@1.1.6 </tspan>
<tspan x="10" y="266">  │ │   ├── balanced-match@0.4.2 </tspan>
<tspan x="10" y="282">  │ │   └── concat-map@0.0.1 </tspan>
<tspan x="10" y="298">  │ ├── once@1.4.0 </tspan>
<tspan x="10" y="314">  │ └── path-is-absolute@1.0.1 </tspan>
<tspan x="10" y="330">  ├── growl@1.9.2 </tspan>
<tspan x="10" y="346">  ├── json3@3.3.2 </tspan>
<tspan x="10" y="362">  ├─┬ lodash.create@3.1.1 </tspan>
<tspan x="10" y="378">  │ ├─┬ lodash._baseassign@3.2.0 </tspan>
<tspan x="10" y="394">  │ │ ├── lodash._basecopy@3.0.1 </tspan>
<tspan x="10" y="410">  │ │ └─┬ lodash.keys@3.1.2 </tspan>
<tspan x="10" y="426">  │ │   ├── lodash._getnative@3.9.1 </tspan>
<tspan x="10" y="442">  │ │   ├── lodash.isarguments@3.1.0 </tspan>
<tspan x="10" y="458">  │ │   └── lodash.isarray@3.0.4 </tspan>
<tspan x="10" y="474">  │ ├── lodash._basecreate@3.0.3 </tspan>
<tspan x="10" y="490">  │ └── lodash._isiterateecall@3.0.9 </tspan>
<tspan x="10" y="506">  ├─┬ mkdirp@0.5.1 </tspan>
<tspan x="10" y="522">  │ └── minimist@0.0.8 </tspan>
<tspan x="10" y="538">  └─┬ supports-color@3.1.2 </tspan>
<tspan x="10" y="554">    └── has-flag@1.0.0</tspan>
</text>
</svg>
